<svg xmlns="http://www.w3.org/2000/svg" width="23.148" height="23.148" viewBox="0 0 23.148 23.148">
  <g id="iconfinder_38-instagram_1161953_copy" data-name="iconfinder_38-instagram_1161953 copy" transform="translate(-3.4 -4.8)">
    <path id="Path_382" data-name="Path 382" d="M21.374,16.7a5.974,5.974,0,1,0,5.974,5.974A5.985,5.985,0,0,0,21.374,16.7Zm0,9.8A3.827,3.827,0,1,1,25.2,22.674,3.844,3.844,0,0,1,21.374,26.5Z" transform="translate(-6.4 -6.346)" fill="#fff"/>
    <circle id="Ellipse_51" data-name="Ellipse 51" cx="1.353" cy="1.353" r="1.353" transform="translate(19.828 8.86)" fill="#fff"/>
    <path id="Path_383" data-name="Path 383" d="M24.681,6.713a6.647,6.647,0,0,0-4.9-1.913H10.167A6.393,6.393,0,0,0,3.4,11.567v9.567a6.715,6.715,0,0,0,1.96,4.994,6.811,6.811,0,0,0,4.854,1.82h9.521a6.891,6.891,0,0,0,4.9-1.82,6.681,6.681,0,0,0,1.913-4.947V11.567A6.69,6.69,0,0,0,24.681,6.713Zm-.187,14.468a4.56,4.56,0,0,1-1.353,3.407A4.824,4.824,0,0,1,19.734,25.8H10.214a4.824,4.824,0,0,1-3.407-1.213,4.691,4.691,0,0,1-1.26-3.454V11.567A4.653,4.653,0,0,1,6.807,8.16a4.746,4.746,0,0,1,3.407-1.213h9.614a4.653,4.653,0,0,1,3.407,1.26,4.816,4.816,0,0,1,1.26,3.36v9.614Z" transform="translate(0 0)" fill="#fff"/>
  </g>
</svg>
