<svg xmlns="http://www.w3.org/2000/svg" width="20.127" height="26" viewBox="0 0 20.127 26">
  <path id="iconfinder_33-pinterest_104469" d="M20.611,4.622c-7.1,0-10.674,5.087-10.674,9.33,0,2.569.972,4.853,3.058,5.7a.514.514,0,0,0,.748-.373c.069-.261.232-.922.305-1.2a.725.725,0,0,0-.215-.832,4.3,4.3,0,0,1-.986-2.928A7.073,7.073,0,0,1,20.2,7.171c4.01,0,6.214,2.45,6.214,5.722,0,4.307-1.906,7.941-4.734,7.941a2.312,2.312,0,0,1-2.358-2.877c.449-1.892,1.318-3.933,1.318-5.3a2,2,0,0,0-2.014-2.242c-1.6,0-2.88,1.652-2.88,3.865a5.746,5.746,0,0,0,.476,2.363S14.588,23.57,14.3,24.783a16.752,16.752,0,0,0-.044,5.674.2.2,0,0,0,.355.087,15.943,15.943,0,0,0,2.7-4.888c.183-.664,1.05-4.1,1.05-4.1a4.28,4.28,0,0,0,3.649,1.86c4.8,0,8.058-4.376,8.058-10.234C30.065,8.747,26.313,4.622,20.611,4.622Z" transform="translate(-9.937 -4.622)" fill="#fff"/>
</svg>
