<svg xmlns="http://www.w3.org/2000/svg" width="22.332" height="18.148" viewBox="0 0 22.332 18.148">
  <path id="iconfinder_03-twitter_104501" d="M25.906,12.474a9.116,9.116,0,0,1-2.632.721,4.59,4.59,0,0,0,2.015-2.535,9.172,9.172,0,0,1-2.909,1.112,4.586,4.586,0,0,0-7.807,4.179,13.009,13.009,0,0,1-9.444-4.787,4.587,4.587,0,0,0,1.418,6.117,4.569,4.569,0,0,1-2.075-.573c0,.019,0,.039,0,.058a4.585,4.585,0,0,0,3.676,4.492,4.607,4.607,0,0,1-1.207.16,4.539,4.539,0,0,1-.862-.083,4.587,4.587,0,0,0,4.28,3.182,9.245,9.245,0,0,1-6.783,1.9A13.03,13.03,0,0,0,23.633,15.439q0-.3-.013-.593A9.28,9.28,0,0,0,25.906,12.474Z" transform="translate(-3.574 -10.326)" fill="#fff"/>
</svg>
